HIERARCHY
ROOT joint_Root
{
	OFFSET 0.0 0.0 0.0
	CHANNELS 6 Xposition Yposition Zposition Zrotation Xrotation Yrotation 
	JOINT Hips
	{
		OFFSET -0.726466 93.3139 -2.00062
		CHANNELS 6 Xposition Yposition Zposition Zrotation Xrotation Yrotation 
		JOINT Spine
		{
			OFFSET 15.7357 0.0 0.0
			CHANNELS 6 Xposition Yposition Zposition Zrotation Xrotation Yrotation 
			JOINT Chest
			{
				OFFSET 8.98455 -0.406207 0.0
				CHANNELS 6 Xposition Yposition Zposition Zrotation Xrotation Yrotation 
				JOINT Neck
				{
					OFFSET 16.3773 0.0 0.0
					CHANNELS 6 Xposition Yposition Zposition Zrotation Xrotation Yrotation 
					JOINT Head
					{
						OFFSET 6.45672 0.0 0.0
						CHANNELS 6 Xposition Yposition Zposition Zrotation Xrotation Yrotation 
						End Site
						{
							OFFSET 0.0 0.0 0.0
						}
					}
				}
				JOINT Shoulder_L
				{
					OFFSET 12.9942 -0.242716 4.98039
					CHANNELS 6 Xposition Yposition Zposition Zrotation Xrotation Yrotation 
					JOINT UpperArm_L
					{
						OFFSET 5.34809 0.0 0.0
						CHANNELS 6 Xposition Yposition Zposition Zrotation Xrotation Yrotation 
						JOINT LowerArm_L
						{
							OFFSET 24.3286 1.87007e-05 0.0
							CHANNELS 6 Xposition Yposition Zposition Zrotation Xrotation Yrotation 
							JOINT Hand_L
							{
								OFFSET 22.2916 0.0 0.0
								CHANNELS 6 Xposition Yposition Zposition Zrotation Xrotation Yrotation 
								End Site
								{
									OFFSET 0.0 0.0 0.0
								}
							}
						}
					}
				}
				JOINT Shoulder_R
				{
					OFFSET 12.9945 -0.242716 -4.98039
					CHANNELS 6 Xposition Yposition Zposition Zrotation Xrotation Yrotation 
					JOINT UpperArm_R
					{
						OFFSET -5.34813 0.0 0.0
						CHANNELS 6 Xposition Yposition Zposition Zrotation Xrotation Yrotation 
						JOINT LowerArm_R
						{
							OFFSET -24.3289 0.000322201 0.0
							CHANNELS 6 Xposition Yposition Zposition Zrotation Xrotation Yrotation 
							JOINT Hand_R
							{
								OFFSET -22.2915 -0.000108084 0.0
								CHANNELS 6 Xposition Yposition Zposition Zrotation Xrotation Yrotation 
								End Site
								{
									OFFSET 0.0 0.0 0.0
								}
							}
						}
					}
				}
			}
		}
		JOINT UpperLeg_L
		{
			OFFSET -2.19248 -6.46944 0.0
			CHANNELS 6 Xposition Yposition Zposition Zrotation Xrotation Yrotation 
			JOINT LowerLeg_L
			{
				OFFSET 39.0811 0.0 -1.23785e-05
				CHANNELS 6 Xposition Yposition Zposition Zrotation Xrotation Yrotation 
				JOINT Foot_L
				{
					OFFSET 40.9854 0.0 -1.26872e-05
					CHANNELS 6 Xposition Yposition Zposition Zrotation Xrotation Yrotation 
					JOINT Toes_L
					{
						OFFSET 11.7543 0.0 0.0
						CHANNELS 6 Xposition Yposition Zposition Zrotation Xrotation Yrotation 
						End Site
						{
							OFFSET 0.0 0.0 0.0
						}
					}
				}
			}
		}
		JOINT UpperLeg_R
		{
			OFFSET -2.19251 6.46944 0.0
			CHANNELS 6 Xposition Yposition Zposition Zrotation Xrotation Yrotation 
			JOINT LowerLeg_R
			{
				OFFSET -39.0811 -0.00228153 -0.0401928
				CHANNELS 6 Xposition Yposition Zposition Zrotation Xrotation Yrotation 
				JOINT Foot_R
				{
					OFFSET -40.9854 0.0 0.0
					CHANNELS 6 Xposition Yposition Zposition Zrotation Xrotation Yrotation 
					JOINT Toes_R
					{
						OFFSET -11.7543 0.0 0.0
						CHANNELS 6 Xposition Yposition Zposition Zrotation Xrotation Yrotation 
						End Site
						{
							OFFSET 0.0 0.0 0.0
						}
					}
				}
			}
		}
	}
}
MOTION
Frames:	7
Frame Time:	0.0333333
0.000000 0.000000 0.000000 0.000000 0.000000 -0.000000 0.877015 87.096500 56.346800 -85.842400 14.057900 -178.100000 15.735700 0.000005 -0.000001 112.198000 78.949300 -111.266000 8.984550 -0.406207 -0.000000 12.726200 8.309400 0.939261 16.377300 -0.000001 -0.000001 4.651410 0.031678 0.295355 6.456720 -0.000001 -0.000000 0.035216 -3.285310 -4.569330 12.994200 -0.242716 4.980390 -88.572300 -3.133030 -65.486200 5.348090 -0.000007 -0.000001 -71.059900 27.092000 10.014200 24.328600 0.000019 0.000005 4.483050 5.949690 -37.103800 22.291600 -0.000001 0.000005 3.523360 5.543770 -8.415220 12.994500 -0.242716 -4.980390 90.220700 -0.676154 -71.923800 -5.348130 -0.000001 -0.000004 -37.546300 19.760400 -51.188500 -24.328900 0.000322 -0.000009 1.921110 1.978100 -44.196400 -22.291500 -0.000108 -0.000004 7.705010 5.551460 -8.774920 -2.192480 -6.469440 -0.000000 -175.100000 -21.840600 -26.124500 39.081100 -0.000007 -0.000012 -0.000866 0.009308 5.310710 40.985400 -0.000006 -0.000013 0.367565 -4.188990 -60.327900 11.754300 -0.000000 0.000003 -0.005734 -0.068410 -19.360800 -2.192510 6.469440 -0.000001 176.393000 9.708080 -171.904000 -39.081100 -0.002282 -0.040193 0.034135 -0.058062 27.966800 -40.985400 0.000008 0.000006 2.159310 3.245670 -81.486100 -11.754300 -0.000006 -0.000006 -0.007779 -0.086221 -20.083900
0.000000 0.000000 0.000000 0.000000 0.000000 -0.000000 0.055200 86.046100 51.284200 -86.616100 15.191800 -178.641000 15.735700 0.000005 -0.000001 114.236000 79.054400 -113.830000 8.984550 -0.406207 -0.000000 12.271700 8.921030 -0.147600 16.377300 -0.000001 -0.000001 4.755150 0.159374 0.523057 6.456720 -0.000001 -0.000000 -0.045967 -3.473920 -4.447590 12.994200 -0.242716 4.980390 -88.662700 -2.911520 -65.317700 5.348090 -0.000007 -0.000001 -70.808800 26.506600 11.165000 24.328600 0.000019 0.000005 4.702120 6.493160 -36.031200 22.291600 -0.000001 0.000005 3.234010 5.543540 -8.404440 12.994500 -0.242716 -4.980390 90.166500 -0.517251 -72.156900 -5.348130 -0.000001 -0.000004 -37.172800 18.838800 -51.764500 -24.328900 0.000322 -0.000009 2.124650 2.230870 -43.639400 -22.291500 -0.000108 -0.000004 8.291190 5.549780 -8.695930 -2.192480 -6.469440 -0.000000 -176.983000 -22.148300 -30.890600 39.081100 -0.000007 -0.000012 0.039334 -0.164460 13.450800 40.985400 -0.000006 -0.000013 3.138110 -6.080170 -59.244800 11.754300 -0.000000 0.000003 -0.007028 -0.079917 -19.830200 -2.192510 6.469440 -0.000001 173.497000 8.778900 -170.535000 -39.081100 -0.002282 -0.040193 0.009565 -0.011095 29.439900 -40.985400 0.000008 0.000006 1.195200 4.192350 -80.395900 -11.754300 -0.000006 -0.000006 -0.716195 -0.845112 -22.374700
0.000000 0.000000 0.000000 0.000000 0.000000 -0.000000 -1.073510 85.362900 46.021500 -88.685800 15.636100 -179.623000 15.735700 0.000005 -0.000001 115.024000 79.506600 -115.568000 8.984550 -0.406207 -0.000000 11.390900 8.790360 -1.966910 16.377300 -0.000001 -0.000001 5.200710 0.298487 0.929125 6.456720 -0.000001 -0.000000 -0.608523 -3.667150 -4.598820 12.994200 -0.242716 4.980390 -89.122900 -1.914710 -65.381200 5.348090 -0.000007 -0.000001 -69.610900 25.104100 11.703300 24.328600 0.000019 0.000005 5.164310 7.396450 -35.071000 22.291600 -0.000001 0.000005 3.121240 5.537870 -8.145650 12.994500 -0.242716 -4.980390 89.823500 0.560278 -72.506300 -5.348130 -0.000001 -0.000004 -37.055500 18.158400 -50.794100 -24.328900 0.000322 -0.000009 2.526010 2.658650 -43.575900 -22.291500 -0.000108 -0.000004 8.563320 5.547790 -8.602400 -2.192480 -6.469440 -0.000000 -178.745000 -20.112100 -36.789600 39.081100 -0.000007 -0.000012 0.137848 -0.311690 23.858100 40.985400 -0.000006 -0.000013 2.314570 -5.437910 -46.813400 11.754300 -0.000000 0.000003 -0.008849 -0.094836 -20.439500 -2.192510 6.469440 -0.000001 169.315000 8.069880 -170.828000 -39.081100 -0.002282 -0.040193 -0.072971 0.123210 31.758100 -40.985400 0.000008 0.000006 0.608600 5.240960 -75.591800 -11.754300 -0.000006 -0.000006 -3.567600 -3.282910 -28.826600
0.000000 0.000000 0.000000 0.000000 0.000000 -0.000000 -2.306150 84.841000 40.033000 -90.820900 15.786200 -179.086000 15.735700 0.000005 -0.000001 114.976000 79.540800 -116.438000 8.984550 -0.406207 -0.000000 11.406600 8.717120 -3.799170 16.377300 -0.000001 -0.000001 5.064520 0.143282 1.107080 6.456720 -0.000001 -0.000000 -0.858578 -3.954470 -4.112880 12.994200 -0.242716 4.980390 -89.403200 -1.305700 -65.434200 5.348090 -0.000007 -0.000001 -68.570900 23.624500 11.106500 24.328600 0.000019 0.000005 4.865060 7.462040 -33.239100 22.291600 -0.000001 0.000005 3.496030 5.531250 -7.850630 12.994500 -0.242716 -4.980390 89.560000 1.398210 -72.531400 -5.348130 -0.000001 -0.000004 -38.836800 17.995500 -47.496000 -24.328900 0.000322 -0.000009 3.106060 3.161210 -44.548200 -22.291500 -0.000108 -0.000004 9.023420 5.546330 -8.533600 -2.192480 -6.469440 -0.000000 -179.695000 -16.534100 -38.415600 39.081100 -0.000007 -0.000012 0.084974 -0.130160 33.137800 40.985400 -0.000006 -0.000013 0.978223 -8.957220 -44.965900 11.754300 -0.000000 0.000003 -0.005604 -0.067207 -19.311700 -2.192510 6.469440 -0.000001 165.493000 5.991130 -170.256000 -39.081100 -0.002282 -0.040193 -0.007828 0.015419 35.791500 -40.985400 0.000008 0.000006 1.062700 4.218090 -70.581200 -11.754300 -0.000006 -0.000006 -0.095513 -0.433285 -34.635400
0.000000 0.000000 0.000000 0.000000 0.000000 -0.000000 -3.308380 84.594500 33.958100 -92.057300 15.080200 -177.370000 15.735700 0.000005 -0.000001 113.882000 79.129300 -115.770000 8.984550 -0.406207 -0.000000 12.363100 8.647150 -4.717880 16.377300 -0.000001 -0.000001 5.016850 -0.241360 0.833939 6.456720 -0.000001 -0.000000 -1.170010 -4.258740 -3.543780 12.994200 -0.242716 4.980390 -89.350800 -1.450170 -65.879300 5.348090 -0.000007 -0.000001 -68.443700 22.604700 8.873190 24.328600 0.000019 0.000005 4.543910 7.704720 -30.658800 22.291600 -0.000001 0.000005 3.839250 5.521350 -7.419750 12.994500 -0.242716 -4.980390 89.523900 1.494200 -72.325700 -5.348130 -0.000001 -0.000004 -42.597500 17.802700 -42.716900 -24.328900 0.000322 -0.000009 3.039760 3.026920 -45.172200 -22.291500 -0.000108 -0.000004 9.376280 5.549140 -8.665300 -2.192480 -6.469440 -0.000000 178.837000 -16.048500 -37.755000 39.081100 -0.000007 -0.000012 0.000534 -0.000582 42.380100 40.985400 -0.000006 -0.000013 0.286790 -8.185100 -52.695700 11.754300 -0.000000 0.000003 -0.000199 -0.003284 -16.710800 -2.192510 6.469440 -0.000001 163.832000 4.030120 -170.540000 -39.081100 -0.002282 -0.040193 0.120809 -0.127716 42.623400 -40.985400 0.000008 0.000006 3.596360 0.828662 -60.917900 -11.754300 -0.000006 -0.000006 -0.177579 -0.606495 -42.412000
0.000000 0.000000 0.000000 0.000000 0.000000 -0.000000 -4.213260 84.697200 28.251600 -92.189600 14.852800 -175.768000 15.735700 0.000005 -0.000001 112.722000 78.789600 -114.523000 8.984550 -0.406207 -0.000000 13.157200 8.488020 -4.588750 16.377300 -0.000001 -0.000001 5.271880 -0.077222 0.494728 6.456720 -0.000001 -0.000000 -1.108370 -3.849420 -3.996020 12.994200 -0.242716 4.980390 -89.353200 -1.460550 -66.110400 5.348090 -0.000007 -0.000001 -68.617900 22.474500 6.711330 24.328600 0.000019 0.000005 4.725410 8.374920 -29.576100 22.291600 -0.000001 0.000005 3.977780 5.512960 -7.064210 12.994500 -0.242716 -4.980390 89.581000 1.312280 -72.289500 -5.348130 -0.000001 -0.000004 -45.825100 18.415300 -38.988000 -24.328900 0.000322 -0.000009 2.794040 2.913060 -43.854500 -22.291500 -0.000108 -0.000004 9.259300 5.553030 -8.850450 -2.192480 -6.469440 -0.000000 178.195000 -17.576400 -34.924700 39.081100 -0.000007 -0.000012 -0.109412 0.098935 47.879700 40.985400 -0.000006 -0.000013 0.570302 -6.782340 -59.731700 11.754300 -0.000000 0.000003 -0.000022 -0.000276 -16.588400 -2.192510 6.469440 -0.000001 164.054000 1.503230 -173.726000 -39.081100 -0.002282 -0.040193 0.230867 -0.178205 51.943500 -40.985400 0.000008 0.000006 3.268280 -4.063860 -48.589300 -11.754300 -0.000006 -0.000006 -0.088968 -0.416319 -33.898200
0.000000 0.000000 0.000000 0.000000 0.000000 -0.000000 -4.788960 85.132500 23.275200 -92.031700 13.813900 -175.146000 15.735700 0.000005 -0.000001 109.906000 78.933300 -111.503000 8.984550 -0.406207 -0.000000 13.230600 7.382580 -4.054750 16.377300 -0.000001 -0.000001 5.298890 0.243012 0.220581 6.456720 -0.000001 -0.000000 -0.463852 -3.031970 -4.240490 12.994200 -0.242716 4.980390 -89.264400 -1.669080 -66.211500 5.348090 -0.000007 -0.000001 -68.743800 23.675000 4.405150 24.328600 0.000019 0.000005 4.283190 7.481140 -29.909600 22.291600 -0.000001 0.000005 4.529730 5.520740 -7.392620 12.994500 -0.242716 -4.980390 89.604300 1.220660 -72.040000 -5.348130 -0.000001 -0.000004 -48.306800 19.953000 -36.349100 -24.328900 0.000322 -0.000009 3.208040 3.663180 -41.273200 -22.291500 -0.000108 -0.000004 8.836110 5.556810 -9.031610 -2.192480 -6.469440 -0.000000 178.058000 -17.588700 -31.565100 39.081100 -0.000007 -0.000012 -0.215372 0.180900 49.972400 40.985400 -0.000006 -0.000013 0.703916 -6.119070 -64.620700 11.754300 -0.000000 0.000003 -0.000032 -0.000381 -16.592400 -2.192510 6.469440 -0.000001 165.899000 0.386289 -177.954000 -39.081100 -0.002282 -0.040193 0.229664 -0.130438 60.059200 -40.985400 0.000008 0.000006 8.353890 -7.853190 -41.273400 -11.754300 -0.000006 -0.000006 -0.021199 -0.173842 -23.677900
